<?xml version="1.0" standalone="no"?>
<!DOCTYPE svg PUBLIC "-//W3C//DTD SVG 20010904//EN"
 "http://www.w3.org/TR/2001/REC-SVG-20010904/DTD/svg10.dtd">
<svg version="1.0" xmlns="http://www.w3.org/2000/svg" width="128px">
<mask id="mask">
	<rect x="0" y="0" width="128" height="128" fill="white" />
	<polygon points="20,0 128,70 128,0" fill="#ebebeb" />
</mask>
<rect fill="#fff" width="128" height="80" rx="6" />
<g mask="url(#mask)">
<rect fill="#161616" width="128" height="80" rx="6" />
<rect fill="#0079cc" y="20" width="128" height="75" rx="6" />
<rect fill="#161616" y="20" width="128" height="55" />

<rect fill="#333" x="10" y="10" width="20" height="5" />
<rect fill="#336633" x="35" y="10" width="15" height="5" />
<rect fill="#333" x="55" y="10" width="10" height="5" />

<rect fill="#333" x="10" y="20" width="45" height="5" />
<rect fill="#333" x="60" y="20" width="25" height="5" />
<rect fill="#333" x="90" y="20" width="15" height="5" />

<rect fill="#663333" x="10" y="30" width="35" height="5" />
<rect fill="#333" x="50" y="30" width="45" height="5" />

<rect fill="#333" x="10" y="40" width="20" height="5" />

<rect fill="#333" x="10" y="50" width="10" height="5" />
<rect fill="#999933" x="25" y="50" width="20" height="5" />
<rect fill="#333" x="50" y="50" width="20" height="5" />

<rect fill="#336633" x="10" y="60" width="20" height="5" />
<rect fill="#333" x="35" y="60" width="50" height="5" />

<g transform="translate(35 89)">
<text fill="#161616" style="font-weight: 900;font-family: Arial, Helvetica, sans-serif; font-variant: small-caps; font-size: 1em;">
	terminus
</text>
</g>

</g>
</svg>
